<svg width="33" height="54" viewBox="0 0 33 54" fill="none" xmlns="http://www.w3.org/2000/svg">
<g clip-path="url(#clip0)">
<path d="M8.20772 45.6553C8.48466 45.4761 8.93233 45.4761 9.20927 45.6553L16.5 50.3728L23.7907 45.6553C24.0677 45.4761 24.5154 45.4761 24.7923 45.6553C25.0692 45.8345 25.0692 46.1241 24.7923 46.3033L17.0008 51.3449C16.8627 51.4343 16.6813 51.4792 16.5 51.4792C16.3186 51.4792 16.1373 51.4343 15.9992 51.3449L8.20769 46.3033C7.93078 46.1241 7.93078 45.8345 8.20772 45.6553Z" fill="#DB4C4C"/>
</g>
<path d="M7.3894 20.2902C7.65695 20.2902 7.87374 20.5071 7.87374 20.7746L7.87374 23.4051C7.87374 28.1616 11.7435 32.0313 16.5 32.0313C21.2565 32.0313 25.1262 28.1616 25.1262 23.4051L25.1262 13.8335C25.1262 13.566 25.343 13.3491 25.6106 13.3491C25.8781 13.3491 26.0949 13.566 26.0949 13.8335L26.0949 23.4051C26.0949 28.6958 21.7906 33 16.5 33C11.2093 33 6.90505 28.6958 6.90506 23.4051L6.90506 20.7746C6.90506 20.5071 7.12185 20.2902 7.3894 20.2902Z" fill="#DB4C4C"/>
<path d="M16.5 -8.38815e-07C21.7906 -3.76291e-07 26.0949 4.30427 26.0949 9.59493L26.0949 11.8961C26.0949 12.1636 25.8781 12.3804 25.6106 12.3804C25.343 12.3804 25.1262 12.1636 25.1262 11.8961L25.1262 9.59493C25.1262 5.00108 21.5165 1.23482 16.9846 0.982573L16.9846 4.45093C17.8108 4.66617 18.4225 5.41859 18.4225 6.31127L18.4225 9.10567C18.4225 9.99835 17.8108 10.7508 16.9846 10.966L16.9846 14.3945C16.9846 14.662 16.7678 14.8789 16.5002 14.8789C16.2327 14.8789 16.0159 14.662 16.0159 14.3945L16.0159 10.966C15.1897 10.7508 14.578 9.99835 14.578 9.10567L14.578 6.31126C14.578 5.41859 15.1897 4.66617 16.0159 4.45093L16.0159 0.982508C11.4837 1.2345 7.87374 5.00082 7.87374 9.59486L7.87374 18.8371C7.87374 19.1046 7.65695 19.3215 7.3894 19.3215C7.12185 19.3215 6.90505 19.1046 6.90505 18.8371L6.90506 9.59493C6.90506 4.30427 11.2093 -1.30134e-06 16.5 -8.38815e-07ZM15.5467 6.31127L15.5467 9.10567C15.5467 9.63148 15.9744 10.0593 16.5002 10.0593C17.026 10.0593 17.4538 9.63148 17.4538 9.10567L17.4538 6.31127C17.4538 5.78546 17.026 5.35769 16.5002 5.35769C15.9744 5.35769 15.5467 5.78546 15.5467 6.31127Z" fill="#DB4C4C"/>
<g clip-path="url(#clip1)">
<path d="M8.20772 39.6553C8.48466 39.4761 8.93233 39.4761 9.20927 39.6553L16.5 44.3728L23.7907 39.6553C24.0677 39.4761 24.5154 39.4761 24.7923 39.6553C25.0692 39.8345 25.0692 40.1241 24.7923 40.3033L17.0008 45.3449C16.8627 45.4343 16.6813 45.4792 16.5 45.4792C16.3186 45.4792 16.1373 45.4343 15.9992 45.3449L8.20769 40.3033C7.93078 40.1241 7.93078 39.8345 8.20772 39.6553Z" fill="#DB4C4C"/>
</g>
<defs>
<clipPath id="clip0">
<rect width="17" height="11" fill="white" transform="matrix(-1 0 0 1 25 43)"/>
</clipPath>
<clipPath id="clip1">
<rect width="17" height="11" fill="white" transform="matrix(-1 0 0 1 25 37)"/>
</clipPath>
</defs>
</svg>
