<svg width="171" height="64" viewBox="0 0 171 64" fill="none" xmlns="http://www.w3.org/2000/svg">
<rect width="171" height="64" fill="url(#paint0_linear)"/>
<path d="M13.752 19.168C12.4 19.168 11.368 18.792 10.656 18.04C9.952 17.288 9.6 16.22 9.6 14.836C9.6 14.148 9.708 13.536 9.924 13C10.14 12.456 10.436 12 10.812 11.632C11.188 11.256 11.636 10.972 12.156 10.78C12.676 10.588 13.24 10.492 13.848 10.492C14.2 10.492 14.52 10.52 14.808 10.576C15.096 10.624 15.348 10.684 15.564 10.756C15.78 10.82 15.96 10.888 16.104 10.96C16.248 11.032 16.352 11.088 16.416 11.128L15.876 12.64C15.62 12.504 15.32 12.388 14.976 12.292C14.64 12.196 14.256 12.148 13.824 12.148C13.536 12.148 13.252 12.196 12.972 12.292C12.7 12.388 12.456 12.544 12.24 12.76C12.032 12.968 11.864 13.24 11.736 13.576C11.608 13.912 11.544 14.32 11.544 14.8C11.544 15.184 11.584 15.544 11.664 15.88C11.752 16.208 11.888 16.492 12.072 16.732C12.264 16.972 12.512 17.164 12.816 17.308C13.12 17.444 13.488 17.512 13.92 17.512C14.192 17.512 14.436 17.496 14.652 17.464C14.868 17.432 15.06 17.396 15.228 17.356C15.396 17.308 15.544 17.256 15.672 17.2C15.8 17.144 15.916 17.092 16.02 17.044L16.536 18.544C16.272 18.704 15.9 18.848 15.42 18.976C14.94 19.104 14.384 19.168 13.752 19.168ZM20.1504 17.752C20.3264 17.752 20.4944 17.748 20.6544 17.74C20.8144 17.732 20.9424 17.72 21.0384 17.704V16.348C20.9664 16.332 20.8584 16.316 20.7144 16.3C20.5704 16.284 20.4384 16.276 20.3184 16.276C20.1504 16.276 19.9904 16.288 19.8384 16.312C19.6944 16.328 19.5664 16.364 19.4544 16.42C19.3424 16.476 19.2544 16.552 19.1904 16.648C19.1264 16.744 19.0944 16.864 19.0944 17.008C19.0944 17.288 19.1864 17.484 19.3704 17.596C19.5624 17.7 19.8224 17.752 20.1504 17.752ZM20.0064 12.52C20.5344 12.52 20.9744 12.58 21.3264 12.7C21.6784 12.82 21.9584 12.992 22.1664 13.216C22.3824 13.44 22.5344 13.712 22.6224 14.032C22.7104 14.352 22.7544 14.708 22.7544 15.1V18.82C22.4984 18.876 22.1424 18.94 21.6864 19.012C21.2304 19.092 20.6784 19.132 20.0304 19.132C19.6224 19.132 19.2504 19.096 18.9144 19.024C18.5864 18.952 18.3024 18.836 18.0624 18.676C17.8224 18.508 17.6384 18.292 17.5104 18.028C17.3824 17.764 17.3184 17.44 17.3184 17.056C17.3184 16.688 17.3904 16.376 17.5344 16.12C17.6864 15.864 17.8864 15.66 18.1344 15.508C18.3824 15.356 18.6664 15.248 18.9864 15.184C19.3064 15.112 19.6384 15.076 19.9824 15.076C20.2144 15.076 20.4184 15.088 20.5944 15.112C20.7784 15.128 20.9264 15.152 21.0384 15.184V15.016C21.0384 14.712 20.9464 14.468 20.7624 14.284C20.5784 14.1 20.2584 14.008 19.8024 14.008C19.4984 14.008 19.1984 14.032 18.9024 14.08C18.6064 14.12 18.3504 14.18 18.1344 14.26L17.9064 12.82C18.0104 12.788 18.1384 12.756 18.2904 12.724C18.4504 12.684 18.6224 12.652 18.8064 12.628C18.9904 12.596 19.1824 12.572 19.3824 12.556C19.5904 12.532 19.7984 12.52 20.0064 12.52ZM30.1193 12.688V19H28.3193C28.3193 18.6 28.3233 18.204 28.3313 17.812C28.3393 17.412 28.3473 17.044 28.3553 16.708C28.3633 16.372 28.3713 16.08 28.3793 15.832C28.3953 15.576 28.4033 15.388 28.4033 15.268C28.1713 15.596 27.9393 15.928 27.7073 16.264C27.4753 16.6 27.2513 16.932 27.0353 17.26C26.8273 17.58 26.6273 17.888 26.4353 18.184C26.2513 18.48 26.0873 18.752 25.9433 19H24.3713V12.688H26.1593C26.1593 13.088 26.1553 13.472 26.1473 13.84C26.1473 14.2 26.1433 14.528 26.1353 14.824C26.1273 15.12 26.1193 15.38 26.1113 15.604C26.1033 15.82 26.0993 15.988 26.0993 16.108C26.5793 15.404 27.0193 14.772 27.4193 14.212C27.8273 13.652 28.2233 13.144 28.6073 12.688H30.1193ZM27.2753 11.824C27.0193 11.824 26.7713 11.788 26.5312 11.716C26.2993 11.636 26.0873 11.524 25.8953 11.38C25.7033 11.228 25.5433 11.048 25.4153 10.84C25.2953 10.624 25.2233 10.38 25.1993 10.108L26.4353 9.784C26.4993 10.088 26.6033 10.304 26.7473 10.432C26.8993 10.56 27.0753 10.624 27.2753 10.624C27.4833 10.624 27.6593 10.568 27.8033 10.456C27.9553 10.336 28.0633 10.116 28.1273 9.796L29.3513 10.12C29.3273 10.392 29.2513 10.636 29.1233 10.852C29.0033 11.06 28.8473 11.236 28.6553 11.38C28.4713 11.524 28.2593 11.636 28.0193 11.716C27.7793 11.788 27.5313 11.824 27.2753 11.824ZM37.0209 14.152H35.0049V19H33.2169V14.152H31.2009V12.688H37.0209V14.152ZM40.3884 17.536H41.1684C41.3924 17.264 41.5644 16.928 41.6844 16.528C41.8124 16.12 41.9004 15.692 41.9484 15.244C42.0044 14.788 42.0364 14.336 42.0444 13.888C42.0524 13.44 42.0564 13.04 42.0564 12.688H46.9764V17.536H48.0444V20.8H46.5204V19H41.9124V20.8H40.3884V17.536ZM45.1884 17.536V14.152H43.7244C43.7084 14.432 43.6884 14.724 43.6644 15.028C43.6484 15.324 43.6124 15.62 43.5564 15.916C43.5084 16.204 43.4404 16.488 43.3524 16.768C43.2644 17.048 43.1484 17.304 43.0044 17.536H45.1884ZM52.1759 14.152C52.1679 14.384 52.1559 14.632 52.1399 14.896C52.1319 15.152 52.1119 15.412 52.0799 15.676C52.0479 15.932 52.0039 16.184 51.9479 16.432C51.8999 16.68 51.8359 16.912 51.7559 17.128C51.6599 17.384 51.5359 17.624 51.3839 17.848C51.2399 18.064 51.0519 18.26 50.8199 18.436C50.5959 18.612 50.3199 18.76 49.9919 18.88C49.6719 18.992 49.2959 19.068 48.8639 19.108L48.6239 17.62C49.0319 17.54 49.3479 17.428 49.5719 17.284C49.7959 17.132 49.9639 16.94 50.0759 16.708C50.1639 16.508 50.2319 16.276 50.2799 16.012C50.3359 15.748 50.3759 15.472 50.3999 15.184C50.4239 14.888 50.4359 14.588 50.4359 14.284C50.4439 13.98 50.4479 13.688 50.4479 13.408V12.688H55.1879V19H53.3999V14.152H52.1759ZM59.4833 16.756C59.2273 17.132 58.9993 17.512 58.7993 17.896C58.5993 18.272 58.4073 18.64 58.2233 19H56.3873C56.6193 18.48 56.8553 18.004 57.0953 17.572C57.3353 17.14 57.5673 16.768 57.7913 16.456C57.4553 16.28 57.1873 16.056 56.9873 15.784C56.7873 15.504 56.6873 15.156 56.6873 14.74C56.6873 14.036 56.9393 13.496 57.4433 13.12C57.9553 12.744 58.6593 12.556 59.5553 12.556C59.7553 12.556 59.9753 12.564 60.2153 12.58C60.4633 12.596 60.7073 12.62 60.9473 12.652C61.1873 12.684 61.4153 12.72 61.6313 12.76C61.8553 12.792 62.0433 12.828 62.1953 12.868V19H60.4073V16.756H59.4833ZM60.4073 13.972C60.3273 13.964 60.2033 13.956 60.0353 13.948C59.8673 13.932 59.7233 13.924 59.6033 13.924C59.1633 13.924 58.8633 14 58.7033 14.152C58.5433 14.296 58.4633 14.484 58.4633 14.716C58.4633 14.86 58.4953 14.984 58.5593 15.088C58.6233 15.184 58.7073 15.264 58.8113 15.328C58.9153 15.384 59.0313 15.424 59.1593 15.448C59.2873 15.472 59.4153 15.484 59.5433 15.484H60.4073V13.972ZM66.758 19V12.688H68.546V17.536H70.19V12.688H71.978V17.536H73.61V12.688H75.398V19H66.758ZM78.8702 14.896C79.0462 14.728 79.2302 14.544 79.4222 14.344C79.6222 14.144 79.8142 13.948 79.9982 13.756C80.1822 13.556 80.3582 13.364 80.5262 13.18C80.6942 12.996 80.8422 12.832 80.9702 12.688H83.1422C82.9822 12.856 82.7822 13.064 82.5422 13.312C82.3102 13.56 82.0622 13.82 81.7982 14.092C81.5342 14.356 81.2662 14.62 80.9942 14.884C80.7302 15.148 80.4782 15.384 80.2382 15.592C80.4782 15.776 80.7342 16.004 81.0062 16.276C81.2782 16.548 81.5422 16.84 81.7982 17.152C82.0622 17.464 82.3102 17.78 82.5422 18.1C82.7822 18.42 82.9862 18.72 83.1542 19H81.1142C80.9702 18.784 80.8062 18.56 80.6222 18.328C80.4382 18.088 80.2462 17.856 80.0462 17.632C79.8462 17.4 79.6422 17.184 79.4342 16.984C79.2342 16.784 79.0462 16.612 78.8702 16.468V19H77.0822V12.688H78.8702V14.896ZM89.5838 15.832C89.5838 16.328 89.5118 16.784 89.3678 17.2C89.2238 17.608 89.0158 17.96 88.7438 18.256C88.4718 18.544 88.1438 18.768 87.7598 18.928C87.3838 19.088 86.9598 19.168 86.4878 19.168C86.0238 19.168 85.5998 19.088 85.2158 18.928C84.8398 18.768 84.5158 18.544 84.2438 18.256C83.9718 17.96 83.7598 17.608 83.6078 17.2C83.4558 16.784 83.3798 16.328 83.3798 15.832C83.3798 15.336 83.4558 14.884 83.6078 14.476C83.7678 14.068 83.9838 13.72 84.2558 13.432C84.5358 13.144 84.8638 12.92 85.2398 12.76C85.6238 12.6 86.0398 12.52 86.4878 12.52C86.9438 12.52 87.3598 12.6 87.7358 12.76C88.1198 12.92 88.4478 13.144 88.7198 13.432C88.9918 13.72 89.2038 14.068 89.3558 14.476C89.5078 14.884 89.5838 15.336 89.5838 15.832ZM87.7598 15.832C87.7598 15.28 87.6478 14.848 87.4238 14.536C87.2078 14.216 86.8958 14.056 86.4878 14.056C86.0798 14.056 85.7638 14.216 85.5398 14.536C85.3158 14.848 85.2038 15.28 85.2038 15.832C85.2038 16.384 85.3158 16.824 85.5398 17.152C85.7638 17.472 86.0798 17.632 86.4878 17.632C86.8958 17.632 87.2078 17.472 87.4238 17.152C87.6478 16.824 87.7598 16.384 87.7598 15.832ZM93.8009 14.152C93.7929 14.384 93.7809 14.632 93.7649 14.896C93.7569 15.152 93.7369 15.412 93.7049 15.676C93.6729 15.932 93.6289 16.184 93.5729 16.432C93.5249 16.68 93.4609 16.912 93.3809 17.128C93.2849 17.384 93.1609 17.624 93.0089 17.848C92.8649 18.064 92.6769 18.26 92.4449 18.436C92.2209 18.612 91.9449 18.76 91.6169 18.88C91.2969 18.992 90.9209 19.068 90.4889 19.108L90.2489 17.62C90.6569 17.54 90.9729 17.428 91.1969 17.284C91.4209 17.132 91.5889 16.94 91.7009 16.708C91.7889 16.508 91.8569 16.276 91.9049 16.012C91.9609 15.748 92.0009 15.472 92.0249 15.184C92.0489 14.888 92.0609 14.588 92.0609 14.284C92.0689 13.98 92.0729 13.688 92.0729 13.408V12.688H96.8129V19H95.0249V14.152H93.8009ZM106.7 19H104.912V12.688H106.7V19ZM101.168 17.752C101.496 17.752 101.752 17.692 101.936 17.572C102.128 17.444 102.224 17.24 102.224 16.96C102.224 16.816 102.192 16.696 102.128 16.6C102.064 16.496 101.976 16.416 101.864 16.36C101.752 16.296 101.62 16.252 101.468 16.228C101.324 16.204 101.168 16.192 101 16.192C100.88 16.192 100.748 16.2 100.604 16.216C100.46 16.232 100.352 16.248 100.28 16.264V17.704C100.376 17.72 100.504 17.732 100.664 17.74C100.824 17.748 100.992 17.752 101.168 17.752ZM100.28 14.932C100.392 14.9 100.536 14.876 100.712 14.86C100.896 14.836 101.104 14.824 101.336 14.824C101.704 14.824 102.048 14.868 102.368 14.956C102.696 15.044 102.98 15.18 103.22 15.364C103.46 15.54 103.648 15.768 103.784 16.048C103.928 16.32 104 16.64 104 17.008C104 17.376 103.936 17.696 103.808 17.968C103.68 18.232 103.496 18.452 103.256 18.628C103.016 18.796 102.728 18.92 102.392 19C102.064 19.088 101.696 19.132 101.288 19.132C100.76 19.132 100.276 19.104 99.8363 19.048C99.3963 19 98.9483 18.92 98.4923 18.808V12.688H100.28V14.932ZM12.168 24.684C12.312 24.948 12.476 25.276 12.66 25.668C12.852 26.052 13.048 26.472 13.248 26.928C13.456 27.376 13.66 27.836 13.86 28.308C14.06 28.78 14.248 29.224 14.424 29.64C14.6 29.224 14.788 28.78 14.988 28.308C15.188 27.836 15.388 27.376 15.588 26.928C15.796 26.472 15.992 26.052 16.176 25.668C16.368 25.276 16.536 24.948 16.68 24.684H18.384C18.464 25.236 18.536 25.856 18.6 26.544C18.672 27.224 18.732 27.936 18.78 28.68C18.836 29.416 18.884 30.156 18.924 30.9C18.972 31.644 19.012 32.344 19.044 33H17.22C17.196 32.192 17.164 31.312 17.124 30.36C17.084 29.408 17.024 28.448 16.944 27.48C16.8 27.816 16.64 28.188 16.464 28.596C16.288 29.004 16.112 29.412 15.936 29.82C15.768 30.228 15.604 30.62 15.444 30.996C15.284 31.364 15.148 31.68 15.036 31.944H13.728C13.616 31.68 13.48 31.364 13.32 30.996C13.16 30.62 12.992 30.228 12.816 29.82C12.648 29.412 12.476 29.004 12.3 28.596C12.124 28.188 11.964 27.816 11.82 27.48C11.74 28.448 11.68 29.408 11.64 30.36C11.6 31.312 11.568 32.192 11.544 33H9.72C9.752 32.344 9.788 31.644 9.828 30.9C9.876 30.156 9.924 29.416 9.972 28.68C10.028 27.936 10.088 27.224 10.152 26.544C10.224 25.856 10.3 25.236 10.38 24.684H12.168ZM23.0215 31.752C23.1975 31.752 23.3655 31.748 23.5255 31.74C23.6855 31.732 23.8135 31.72 23.9095 31.704V30.348C23.8375 30.332 23.7295 30.316 23.5855 30.3C23.4415 30.284 23.3095 30.276 23.1895 30.276C23.0215 30.276 22.8615 30.288 22.7095 30.312C22.5655 30.328 22.4375 30.364 22.3255 30.42C22.2135 30.476 22.1255 30.552 22.0615 30.648C21.9975 30.744 21.9655 30.864 21.9655 31.008C21.9655 31.288 22.0575 31.484 22.2415 31.596C22.4335 31.7 22.6935 31.752 23.0215 31.752ZM22.8775 26.52C23.4055 26.52 23.8455 26.58 24.1975 26.7C24.5495 26.82 24.8295 26.992 25.0375 27.216C25.2535 27.44 25.4055 27.712 25.4935 28.032C25.5815 28.352 25.6255 28.708 25.6255 29.1V32.82C25.3695 32.876 25.0135 32.94 24.5575 33.012C24.1015 33.092 23.5495 33.132 22.9015 33.132C22.4935 33.132 22.1215 33.096 21.7855 33.024C21.4575 32.952 21.1735 32.836 20.9335 32.676C20.6935 32.508 20.5095 32.292 20.3815 32.028C20.2535 31.764 20.1895 31.44 20.1895 31.056C20.1895 30.688 20.2615 30.376 20.4055 30.12C20.5575 29.864 20.7575 29.66 21.0055 29.508C21.2535 29.356 21.5375 29.248 21.8575 29.184C22.1775 29.112 22.5095 29.076 22.8535 29.076C23.0855 29.076 23.2895 29.088 23.4655 29.112C23.6495 29.128 23.7975 29.152 23.9095 29.184V29.016C23.9095 28.712 23.8175 28.468 23.6335 28.284C23.4495 28.1 23.1295 28.008 22.6735 28.008C22.3695 28.008 22.0695 28.032 21.7735 28.08C21.4775 28.12 21.2215 28.18 21.0055 28.26L20.7775 26.82C20.8815 26.788 21.0095 26.756 21.1615 26.724C21.3215 26.684 21.4935 26.652 21.6775 26.628C21.8615 26.596 22.0535 26.572 22.2535 26.556C22.4615 26.532 22.6695 26.52 22.8775 26.52ZM29.0303 28.968C29.2063 28.776 29.3863 28.576 29.5703 28.368C29.7623 28.16 29.9463 27.956 30.1223 27.756C30.2983 27.548 30.4623 27.352 30.6143 27.168C30.7743 26.984 30.9103 26.824 31.0223 26.688H33.1463C32.7223 27.176 32.3063 27.644 31.8983 28.092C31.4983 28.532 31.0583 28.988 30.5783 29.46C30.8183 29.676 31.0663 29.936 31.3223 30.24C31.5783 30.536 31.8263 30.844 32.0663 31.164C32.3063 31.484 32.5263 31.804 32.7263 32.124C32.9263 32.444 33.0943 32.736 33.2303 33H31.1783C31.0503 32.792 30.9023 32.564 30.7343 32.316C30.5743 32.06 30.4023 31.808 30.2183 31.56C30.0343 31.304 29.8383 31.06 29.6303 30.828C29.4303 30.596 29.2303 30.4 29.0303 30.24V33H27.2423V23.976L29.0303 23.688V28.968ZM33.458 29.892C33.458 29.332 33.542 28.844 33.71 28.428C33.886 28.004 34.114 27.652 34.394 27.372C34.674 27.092 34.994 26.88 35.354 26.736C35.722 26.592 36.098 26.52 36.482 26.52C37.378 26.52 38.086 26.796 38.606 27.348C39.126 27.892 39.386 28.696 39.386 29.76C39.386 29.864 39.382 29.98 39.374 30.108C39.366 30.228 39.358 30.336 39.35 30.432H35.294C35.334 30.8 35.506 31.092 35.81 31.308C36.114 31.524 36.522 31.632 37.034 31.632C37.362 31.632 37.682 31.604 37.994 31.548C38.314 31.484 38.574 31.408 38.774 31.32L39.014 32.772C38.918 32.82 38.79 32.868 38.63 32.916C38.47 32.964 38.29 33.004 38.09 33.036C37.898 33.076 37.69 33.108 37.466 33.132C37.242 33.156 37.018 33.168 36.794 33.168C36.226 33.168 35.73 33.084 35.306 32.916C34.89 32.748 34.542 32.52 34.262 32.232C33.99 31.936 33.786 31.588 33.65 31.188C33.522 30.788 33.458 30.356 33.458 29.892ZM37.658 29.208C37.65 29.056 37.622 28.908 37.574 28.764C37.534 28.62 37.466 28.492 37.37 28.38C37.282 28.268 37.166 28.176 37.022 28.104C36.886 28.032 36.714 27.996 36.506 27.996C36.306 27.996 36.134 28.032 35.99 28.104C35.846 28.168 35.726 28.256 35.63 28.368C35.534 28.48 35.458 28.612 35.402 28.764C35.354 28.908 35.318 29.056 35.294 29.208H37.658ZM40.2258 28.608H43.7058V30.228H40.2258V28.608ZM50.2319 32.784C49.9279 32.872 49.5359 32.952 49.0559 33.024C48.5759 33.104 48.0719 33.144 47.5439 33.144C47.0079 33.144 46.5599 33.072 46.1999 32.928C45.8479 32.784 45.5679 32.584 45.3599 32.328C45.1519 32.064 45.0039 31.752 44.9159 31.392C44.8279 31.032 44.7839 30.636 44.7839 30.204V26.688H46.5719V29.988C46.5719 30.564 46.6479 30.98 46.7999 31.236C46.9519 31.492 47.2359 31.62 47.6519 31.62C47.7799 31.62 47.9159 31.616 48.0599 31.608C48.2039 31.592 48.3319 31.576 48.4439 31.56V26.688H50.2319V32.784ZM55.9543 29.892C55.9543 29.34 55.8303 28.9 55.5823 28.572C55.3343 28.236 54.9663 28.068 54.4783 28.068C54.3183 28.068 54.1703 28.076 54.0343 28.092C53.8983 28.1 53.7863 28.112 53.6983 28.128V31.356C53.8103 31.428 53.9543 31.488 54.1303 31.536C54.3143 31.584 54.4983 31.608 54.6823 31.608C55.5303 31.608 55.9543 31.036 55.9543 29.892ZM57.7783 29.844C57.7783 30.332 57.7183 30.776 57.5983 31.176C57.4783 31.576 57.3023 31.92 57.0703 32.208C56.8383 32.496 56.5503 32.72 56.2063 32.88C55.8623 33.04 55.4663 33.12 55.0183 33.12C54.7703 33.12 54.5383 33.096 54.3223 33.048C54.1063 33 53.8983 32.932 53.6983 32.844V35.22H51.9103V26.904C52.0703 26.856 52.2543 26.812 52.4623 26.772C52.6703 26.724 52.8863 26.684 53.1103 26.652C53.3423 26.62 53.5743 26.596 53.8063 26.58C54.0463 26.556 54.2743 26.544 54.4903 26.544C55.0103 26.544 55.4743 26.624 55.8823 26.784C56.2903 26.936 56.6343 27.156 56.9143 27.444C57.1943 27.724 57.4063 28.068 57.5503 28.476C57.7023 28.884 57.7783 29.34 57.7783 29.844ZM63.8233 31.68C63.9353 31.696 64.0833 31.712 64.2673 31.728C64.4593 31.736 64.6353 31.74 64.7953 31.74C65.1953 31.74 65.5073 31.692 65.7313 31.596C65.9553 31.492 66.0673 31.308 66.0673 31.044C66.0673 30.788 65.9633 30.612 65.7553 30.516C65.5553 30.412 65.2593 30.36 64.8673 30.36H63.8233V31.68ZM64.8313 29.16C65.1273 29.16 65.3673 29.124 65.5513 29.052C65.7353 28.972 65.8273 28.804 65.8273 28.548C65.8273 28.308 65.7233 28.144 65.5153 28.056C65.3073 27.968 65.0353 27.924 64.6993 27.924C64.5873 27.924 64.4393 27.932 64.2553 27.948C64.0793 27.956 63.9353 27.968 63.8233 27.984V29.16H64.8313ZM64.7713 33.12C64.5473 33.12 64.3073 33.112 64.0513 33.096C63.7953 33.08 63.5433 33.056 63.2953 33.024C63.0473 33 62.8113 32.972 62.5873 32.94C62.3713 32.9 62.1873 32.864 62.0353 32.832V26.784C62.1873 26.752 62.3713 26.724 62.5873 26.7C62.8113 26.668 63.0473 26.64 63.2953 26.616C63.5433 26.592 63.7953 26.576 64.0513 26.568C64.3073 26.552 64.5473 26.544 64.7713 26.544C65.2913 26.544 65.7273 26.596 66.0793 26.7C66.4393 26.804 66.7273 26.94 66.9433 27.108C67.1673 27.276 67.3273 27.464 67.4233 27.672C67.5193 27.88 67.5673 28.088 67.5673 28.296C67.5673 28.576 67.4993 28.832 67.3633 29.064C67.2273 29.296 67.0553 29.464 66.8473 29.568C66.9593 29.616 67.0713 29.684 67.1833 29.772C67.3033 29.86 67.4113 29.968 67.5073 30.096C67.6033 30.216 67.6793 30.364 67.7353 30.54C67.7993 30.708 67.8313 30.904 67.8313 31.128C67.8313 31.384 67.7793 31.632 67.6753 31.872C67.5793 32.112 67.4113 32.324 67.1713 32.508C66.9313 32.692 66.6153 32.84 66.2233 32.952C65.8313 33.064 65.3473 33.12 64.7713 33.12ZM76.002 33.168C74.65 33.168 73.618 32.792 72.906 32.04C72.202 31.288 71.85 30.22 71.85 28.836C71.85 28.148 71.958 27.536 72.174 27C72.39 26.456 72.686 26 73.062 25.632C73.438 25.256 73.886 24.972 74.406 24.78C74.926 24.588 75.49 24.492 76.098 24.492C76.45 24.492 76.77 24.52 77.058 24.576C77.346 24.624 77.598 24.684 77.814 24.756C78.03 24.82 78.21 24.888 78.354 24.96C78.498 25.032 78.602 25.088 78.666 25.128L78.126 26.64C77.87 26.504 77.57 26.388 77.226 26.292C76.89 26.196 76.506 26.148 76.074 26.148C75.786 26.148 75.502 26.196 75.222 26.292C74.95 26.388 74.706 26.544 74.49 26.76C74.282 26.968 74.114 27.24 73.986 27.576C73.858 27.912 73.794 28.32 73.794 28.8C73.794 29.184 73.834 29.544 73.914 29.88C74.002 30.208 74.138 30.492 74.322 30.732C74.514 30.972 74.762 31.164 75.066 31.308C75.37 31.444 75.738 31.512 76.17 31.512C76.442 31.512 76.686 31.496 76.902 31.464C77.118 31.432 77.31 31.396 77.478 31.356C77.646 31.308 77.794 31.256 77.922 31.2C78.05 31.144 78.166 31.092 78.27 31.044L78.786 32.544C78.522 32.704 78.15 32.848 77.67 32.976C77.19 33.104 76.634 33.168 76.002 33.168ZM82.4004 31.752C82.5764 31.752 82.7444 31.748 82.9044 31.74C83.0644 31.732 83.1924 31.72 83.2884 31.704V30.348C83.2164 30.332 83.1084 30.316 82.9644 30.3C82.8204 30.284 82.6884 30.276 82.5684 30.276C82.4004 30.276 82.2404 30.288 82.0884 30.312C81.9444 30.328 81.8164 30.364 81.7044 30.42C81.5924 30.476 81.5044 30.552 81.4404 30.648C81.3764 30.744 81.3444 30.864 81.3444 31.008C81.3444 31.288 81.4364 31.484 81.6204 31.596C81.8124 31.7 82.0724 31.752 82.4004 31.752ZM82.2564 26.52C82.7844 26.52 83.2244 26.58 83.5764 26.7C83.9284 26.82 84.2084 26.992 84.4164 27.216C84.6324 27.44 84.7844 27.712 84.8724 28.032C84.9604 28.352 85.0044 28.708 85.0044 29.1V32.82C84.7484 32.876 84.3924 32.94 83.9364 33.012C83.4804 33.092 82.9284 33.132 82.2804 33.132C81.8724 33.132 81.5004 33.096 81.1644 33.024C80.8364 32.952 80.5524 32.836 80.3124 32.676C80.0724 32.508 79.8884 32.292 79.7604 32.028C79.6324 31.764 79.5684 31.44 79.5684 31.056C79.5684 30.688 79.6404 30.376 79.7844 30.12C79.9364 29.864 80.1364 29.66 80.3844 29.508C80.6324 29.356 80.9164 29.248 81.2364 29.184C81.5564 29.112 81.8884 29.076 82.2324 29.076C82.4644 29.076 82.6684 29.088 82.8444 29.112C83.0284 29.128 83.1764 29.152 83.2884 29.184V29.016C83.2884 28.712 83.1964 28.468 83.0124 28.284C82.8284 28.1 82.5084 28.008 82.0524 28.008C81.7484 28.008 81.4484 28.032 81.1524 28.08C80.8564 28.12 80.6004 28.18 80.3844 28.26L80.1564 26.82C80.2604 26.788 80.3884 26.756 80.5404 26.724C80.7004 26.684 80.8724 26.652 81.0564 26.628C81.2404 26.596 81.4324 26.572 81.6324 26.556C81.8404 26.532 82.0484 26.52 82.2564 26.52ZM88.3973 29.364C88.3813 29.644 88.3653 29.948 88.3493 30.276C88.3333 30.604 88.3173 30.936 88.3013 31.272C88.2933 31.6 88.2813 31.916 88.2653 32.22C88.2573 32.516 88.2493 32.776 88.2413 33H86.5013C86.5173 32.56 86.5413 32.064 86.5732 31.512C86.6133 30.96 86.6533 30.4 86.6933 29.832C86.7413 29.256 86.7893 28.696 86.8373 28.152C86.8933 27.608 86.9453 27.12 86.9933 26.688H88.4813C88.8253 27.248 89.1413 27.828 89.4293 28.428C89.7173 29.028 90.0213 29.688 90.3413 30.408C90.6773 29.64 91.0053 28.932 91.3253 28.284C91.6453 27.628 91.9333 27.096 92.1893 26.688H93.7013C93.7573 27.12 93.8093 27.608 93.8573 28.152C93.9133 28.696 93.9613 29.256 94.0013 29.832C94.0493 30.4 94.0893 30.96 94.1213 31.512C94.1533 32.064 94.1773 32.56 94.1933 33H92.4173C92.4013 32.376 92.3773 31.756 92.3453 31.14C92.3213 30.524 92.2973 29.928 92.2733 29.352L90.9533 32.256H89.7173L88.3973 29.364ZM98.1622 31.752C98.3382 31.752 98.5062 31.748 98.6662 31.74C98.8262 31.732 98.9542 31.72 99.0502 31.704V30.348C98.9782 30.332 98.8702 30.316 98.7262 30.3C98.5822 30.284 98.4502 30.276 98.3302 30.276C98.1622 30.276 98.0022 30.288 97.8502 30.312C97.7062 30.328 97.5782 30.364 97.4662 30.42C97.3542 30.476 97.2662 30.552 97.2022 30.648C97.1382 30.744 97.1062 30.864 97.1062 31.008C97.1062 31.288 97.1982 31.484 97.3822 31.596C97.5742 31.7 97.8342 31.752 98.1622 31.752ZM98.0182 26.52C98.5462 26.52 98.9862 26.58 99.3382 26.7C99.6902 26.82 99.9702 26.992 100.178 27.216C100.394 27.44 100.546 27.712 100.634 28.032C100.722 28.352 100.766 28.708 100.766 29.1V32.82C100.51 32.876 100.154 32.94 99.6982 33.012C99.2422 33.092 98.6902 33.132 98.0422 33.132C97.6342 33.132 97.2622 33.096 96.9262 33.024C96.5982 32.952 96.3142 32.836 96.0742 32.676C95.8342 32.508 95.6502 32.292 95.5222 32.028C95.3942 31.764 95.3302 31.44 95.3302 31.056C95.3302 30.688 95.4022 30.376 95.5462 30.12C95.6982 29.864 95.8982 29.66 96.1462 29.508C96.3942 29.356 96.6782 29.248 96.9982 29.184C97.3182 29.112 97.6502 29.076 97.9942 29.076C98.2262 29.076 98.4302 29.088 98.6062 29.112C98.7902 29.128 98.9382 29.152 99.0502 29.184V29.016C99.0502 28.712 98.9582 28.468 98.7742 28.284C98.5902 28.1 98.2702 28.008 97.8142 28.008C97.5102 28.008 97.2102 28.032 96.9142 28.08C96.6182 28.12 96.3622 28.18 96.1462 28.26L95.9182 26.82C96.0222 26.788 96.1502 26.756 96.3022 26.724C96.4622 26.684 96.6342 26.652 96.8182 26.628C97.0022 26.596 97.1942 26.572 97.3942 26.556C97.6022 26.532 97.8102 26.52 98.0182 26.52ZM106.427 29.892C106.427 29.34 106.303 28.9 106.055 28.572C105.807 28.236 105.439 28.068 104.951 28.068C104.791 28.068 104.643 28.076 104.507 28.092C104.371 28.1 104.259 28.112 104.171 28.128V31.356C104.283 31.428 104.427 31.488 104.603 31.536C104.787 31.584 104.971 31.608 105.155 31.608C106.003 31.608 106.427 31.036 106.427 29.892ZM108.251 29.844C108.251 30.332 108.191 30.776 108.071 31.176C107.951 31.576 107.775 31.92 107.543 32.208C107.311 32.496 107.023 32.72 106.679 32.88C106.335 33.04 105.939 33.12 105.491 33.12C105.243 33.12 105.011 33.096 104.795 33.048C104.579 33 104.371 32.932 104.171 32.844V35.22H102.383V26.904C102.543 26.856 102.727 26.812 102.935 26.772C103.143 26.724 103.359 26.684 103.583 26.652C103.815 26.62 104.047 26.596 104.279 26.58C104.519 26.556 104.747 26.544 104.963 26.544C105.483 26.544 105.947 26.624 106.355 26.784C106.763 26.936 107.107 27.156 107.387 27.444C107.667 27.724 107.879 28.068 108.023 28.476C108.175 28.884 108.251 29.34 108.251 29.844ZM109.325 29.892C109.325 29.332 109.409 28.844 109.577 28.428C109.753 28.004 109.981 27.652 110.261 27.372C110.541 27.092 110.861 26.88 111.221 26.736C111.589 26.592 111.965 26.52 112.349 26.52C113.245 26.52 113.953 26.796 114.473 27.348C114.993 27.892 115.253 28.696 115.253 29.76C115.253 29.864 115.249 29.98 115.241 30.108C115.233 30.228 115.225 30.336 115.217 30.432H111.161C111.201 30.8 111.373 31.092 111.677 31.308C111.981 31.524 112.389 31.632 112.901 31.632C113.229 31.632 113.549 31.604 113.861 31.548C114.181 31.484 114.441 31.408 114.641 31.32L114.881 32.772C114.785 32.82 114.657 32.868 114.497 32.916C114.337 32.964 114.157 33.004 113.957 33.036C113.765 33.076 113.557 33.108 113.333 33.132C113.109 33.156 112.885 33.168 112.661 33.168C112.093 33.168 111.597 33.084 111.173 32.916C110.757 32.748 110.409 32.52 110.129 32.232C109.857 31.936 109.653 31.588 109.517 31.188C109.389 30.788 109.325 30.356 109.325 29.892ZM113.525 29.208C113.517 29.056 113.489 28.908 113.441 28.764C113.401 28.62 113.333 28.492 113.237 28.38C113.149 28.268 113.033 28.176 112.889 28.104C112.753 28.032 112.581 27.996 112.373 27.996C112.173 27.996 112.001 28.032 111.857 28.104C111.713 28.168 111.593 28.256 111.497 28.368C111.401 28.48 111.325 28.612 111.269 28.764C111.221 28.908 111.185 29.056 111.161 29.208H113.525ZM15.528 47C15.44 46.712 15.34 46.416 15.228 46.112C15.124 45.808 15.02 45.504 14.916 45.2H11.676C11.572 45.504 11.464 45.808 11.352 46.112C11.248 46.416 11.152 46.712 11.064 47H9.12C9.432 46.104 9.728 45.276 10.008 44.516C10.288 43.756 10.56 43.04 10.824 42.368C11.096 41.696 11.36 41.06 11.616 40.46C11.88 39.852 12.152 39.26 12.432 38.684H14.22C14.492 39.26 14.76 39.852 15.024 40.46C15.288 41.06 15.552 41.696 15.816 42.368C16.088 43.04 16.364 43.756 16.644 44.516C16.924 45.276 17.22 46.104 17.532 47H15.528ZM13.284 40.568C13.244 40.688 13.184 40.852 13.104 41.06C13.024 41.268 12.932 41.508 12.828 41.78C12.724 42.052 12.608 42.352 12.48 42.68C12.36 43.008 12.236 43.352 12.108 43.712H14.472C14.344 43.352 14.22 43.008 14.1 42.68C13.98 42.352 13.864 42.052 13.752 41.78C13.648 41.508 13.556 41.268 13.476 41.06C13.396 40.852 13.332 40.688 13.284 40.568ZM21.0084 47.12C20.4884 47.112 20.0644 47.056 19.7364 46.952C19.4164 46.848 19.1604 46.704 18.9684 46.52C18.7844 46.328 18.6564 46.1 18.5844 45.836C18.5204 45.564 18.4884 45.26 18.4884 44.924V37.976L20.2764 37.688V44.564C20.2764 44.724 20.2884 44.868 20.3124 44.996C20.3364 45.124 20.3804 45.232 20.4444 45.32C20.5164 45.408 20.6164 45.48 20.7444 45.536C20.8724 45.592 21.0444 45.628 21.2604 45.644L21.0084 47.12ZM24.0733 47H22.2853V40.688H24.0733V47ZM24.2413 38.864C24.2413 39.192 24.1333 39.452 23.9173 39.644C23.7093 39.828 23.4613 39.92 23.1733 39.92C22.8853 39.92 22.6333 39.828 22.4173 39.644C22.2093 39.452 22.1053 39.192 22.1053 38.864C22.1053 38.536 22.2093 38.28 22.4173 38.096C22.6333 37.904 22.8853 37.808 23.1733 37.808C23.4613 37.808 23.7093 37.904 23.9173 38.096C24.1333 38.28 24.2413 38.536 24.2413 38.864ZM25.7541 40.904C26.0581 40.816 26.4501 40.736 26.9301 40.664C27.4101 40.584 27.9141 40.544 28.4421 40.544C28.9781 40.544 29.4221 40.616 29.7741 40.76C30.1341 40.896 30.4181 41.092 30.6261 41.348C30.8341 41.604 30.9821 41.908 31.0701 42.26C31.1581 42.612 31.2021 43.004 31.2021 43.436V47H29.4141V43.652C29.4141 43.076 29.3381 42.668 29.1861 42.428C29.0341 42.188 28.7501 42.068 28.3341 42.068C28.2061 42.068 28.0701 42.076 27.9261 42.092C27.7821 42.1 27.6541 42.112 27.5421 42.128V47H25.7541V40.904ZM35.2325 45.752C35.4085 45.752 35.5765 45.748 35.7365 45.74C35.8965 45.732 36.0245 45.72 36.1205 45.704V44.348C36.0485 44.332 35.9405 44.316 35.7965 44.3C35.6525 44.284 35.5205 44.276 35.4005 44.276C35.2325 44.276 35.0725 44.288 34.9205 44.312C34.7765 44.328 34.6485 44.364 34.5365 44.42C34.4245 44.476 34.3365 44.552 34.2725 44.648C34.2085 44.744 34.1765 44.864 34.1765 45.008C34.1765 45.288 34.2685 45.484 34.4525 45.596C34.6445 45.7 34.9045 45.752 35.2325 45.752ZM35.0885 40.52C35.6165 40.52 36.0565 40.58 36.4085 40.7C36.7605 40.82 37.0405 40.992 37.2485 41.216C37.4645 41.44 37.6165 41.712 37.7045 42.032C37.7925 42.352 37.8365 42.708 37.8365 43.1V46.82C37.5805 46.876 37.2245 46.94 36.7685 47.012C36.3125 47.092 35.7605 47.132 35.1125 47.132C34.7045 47.132 34.3325 47.096 33.9965 47.024C33.6685 46.952 33.3845 46.836 33.1445 46.676C32.9045 46.508 32.7205 46.292 32.5925 46.028C32.4645 45.764 32.4005 45.44 32.4005 45.056C32.4005 44.688 32.4725 44.376 32.6165 44.12C32.7685 43.864 32.9685 43.66 33.2165 43.508C33.4645 43.356 33.7485 43.248 34.0685 43.184C34.3885 43.112 34.7205 43.076 35.0645 43.076C35.2965 43.076 35.5005 43.088 35.6765 43.112C35.8605 43.128 36.0085 43.152 36.1205 43.184V43.016C36.1205 42.712 36.0285 42.468 35.8445 42.284C35.6605 42.1 35.3405 42.008 34.8845 42.008C34.5805 42.008 34.2805 42.032 33.9845 42.08C33.6885 42.12 33.4325 42.18 33.2165 42.26L32.9885 40.82C33.0925 40.788 33.2205 40.756 33.3725 40.724C33.5325 40.684 33.7045 40.652 33.8885 40.628C34.0725 40.596 34.2645 40.572 34.4645 40.556C34.6725 40.532 34.8805 40.52 35.0885 40.52ZM44.9281 47C44.6001 46.304 44.2761 45.58 43.9561 44.828C43.6361 44.076 43.3321 43.332 43.0441 42.596C42.7561 41.86 42.4881 41.156 42.2401 40.484C42.0001 39.812 41.7921 39.212 41.6161 38.684H43.6801C43.8401 39.164 44.0121 39.684 44.1961 40.244C44.3881 40.796 44.5801 41.348 44.7721 41.9C44.9721 42.452 45.1641 42.98 45.3481 43.484C45.5321 43.988 45.7041 44.424 45.8641 44.792C46.0161 44.424 46.1841 43.988 46.3681 43.484C46.5601 42.98 46.7521 42.452 46.9441 41.9C47.1441 41.348 47.3361 40.796 47.5201 40.244C47.7121 39.684 47.8881 39.164 48.0481 38.684H50.0401C49.8561 39.212 49.6441 39.812 49.4041 40.484C49.1641 41.156 48.9001 41.86 48.6121 42.596C48.3241 43.332 48.0201 44.076 47.7001 44.828C47.3801 45.58 47.0561 46.304 46.7281 47H44.9281ZM52.9161 45.752C53.0921 45.752 53.2601 45.748 53.4201 45.74C53.5801 45.732 53.7081 45.72 53.8041 45.704V44.348C53.7321 44.332 53.6241 44.316 53.4801 44.3C53.3361 44.284 53.2041 44.276 53.0841 44.276C52.9161 44.276 52.7561 44.288 52.6041 44.312C52.4601 44.328 52.3321 44.364 52.2201 44.42C52.1081 44.476 52.0201 44.552 51.9561 44.648C51.8921 44.744 51.8601 44.864 51.8601 45.008C51.8601 45.288 51.9521 45.484 52.1361 45.596C52.3281 45.7 52.5881 45.752 52.9161 45.752ZM52.7721 40.52C53.3001 40.52 53.7401 40.58 54.0921 40.7C54.4441 40.82 54.7241 40.992 54.9321 41.216C55.1481 41.44 55.3001 41.712 55.3881 42.032C55.4761 42.352 55.5201 42.708 55.5201 43.1V46.82C55.2641 46.876 54.9081 46.94 54.4521 47.012C53.9961 47.092 53.4441 47.132 52.7961 47.132C52.3881 47.132 52.0161 47.096 51.6801 47.024C51.3521 46.952 51.0681 46.836 50.8281 46.676C50.5881 46.508 50.4041 46.292 50.2761 46.028C50.1481 45.764 50.0841 45.44 50.0841 45.056C50.0841 44.688 50.1561 44.376 50.3001 44.12C50.4521 43.864 50.6521 43.66 50.9001 43.508C51.1481 43.356 51.4321 43.248 51.7521 43.184C52.0721 43.112 52.4041 43.076 52.7481 43.076C52.9801 43.076 53.1841 43.088 53.3601 43.112C53.5441 43.128 53.6921 43.152 53.8041 43.184V43.016C53.8041 42.712 53.7121 42.468 53.5281 42.284C53.3441 42.1 53.0241 42.008 52.5681 42.008C52.2641 42.008 51.9641 42.032 51.6681 42.08C51.3721 42.12 51.1161 42.18 50.9001 42.26L50.6721 40.82C50.7761 40.788 50.9041 40.756 51.0561 40.724C51.2161 40.684 51.3881 40.652 51.5721 40.628C51.7561 40.596 51.9481 40.572 52.1481 40.556C52.3561 40.532 52.5641 40.52 52.7721 40.52ZM58.7005 47C58.2925 46.2 57.8765 45.264 57.4525 44.192C57.0365 43.12 56.6405 41.952 56.2645 40.688H58.1605C58.2405 41 58.3325 41.34 58.4365 41.708C58.5485 42.068 58.6605 42.436 58.7725 42.812C58.8925 43.18 59.0085 43.54 59.1205 43.892C59.2405 44.244 59.3565 44.564 59.4685 44.852C59.5725 44.564 59.6845 44.244 59.8045 43.892C59.9245 43.54 60.0405 43.18 60.1525 42.812C60.2725 42.436 60.3845 42.068 60.4885 41.708C60.6005 41.34 60.6965 41 60.7765 40.688H62.6245C62.2485 41.952 61.8485 43.12 61.4245 44.192C61.0085 45.264 60.5965 46.2 60.1885 47H58.7005ZM65.3702 47H63.5822V40.688H65.3702V47ZM65.5382 38.864C65.5382 39.192 65.4302 39.452 65.2142 39.644C65.0062 39.828 64.7582 39.92 64.4702 39.92C64.1822 39.92 63.9302 39.828 63.7142 39.644C63.5062 39.452 63.4022 39.192 63.4022 38.864C63.4022 38.536 63.5062 38.28 63.7142 38.096C63.9302 37.904 64.1822 37.808 64.4702 37.808C64.7582 37.808 65.0062 37.904 65.2142 38.096C65.4302 38.28 65.5382 38.536 65.5382 38.864ZM69.5709 47.12C69.0509 47.112 68.6269 47.056 68.2989 46.952C67.9789 46.848 67.7229 46.704 67.5309 46.52C67.3469 46.328 67.2189 46.1 67.1469 45.836C67.0829 45.564 67.0509 45.26 67.0509 44.924V37.976L68.8389 37.688V44.564C68.8389 44.724 68.8509 44.868 68.8749 44.996C68.8989 45.124 68.9429 45.232 69.0069 45.32C69.0789 45.408 69.1789 45.48 69.3069 45.536C69.4349 45.592 69.6069 45.628 69.8229 45.644L69.5709 47.12ZM76.7518 43.832C76.7518 44.328 76.6798 44.784 76.5358 45.2C76.3918 45.608 76.1838 45.96 75.9118 46.256C75.6398 46.544 75.3118 46.768 74.9278 46.928C74.5518 47.088 74.1278 47.168 73.6558 47.168C73.1918 47.168 72.7678 47.088 72.3838 46.928C72.0078 46.768 71.6838 46.544 71.4118 46.256C71.1398 45.96 70.9278 45.608 70.7758 45.2C70.6238 44.784 70.5478 44.328 70.5478 43.832C70.5478 43.336 70.6238 42.884 70.7758 42.476C70.9358 42.068 71.1518 41.72 71.4238 41.432C71.7038 41.144 72.0318 40.92 72.4078 40.76C72.7918 40.6 73.2078 40.52 73.6558 40.52C74.1118 40.52 74.5278 40.6 74.9038 40.76C75.2878 40.92 75.6158 41.144 75.8878 41.432C76.1598 41.72 76.3718 42.068 76.5238 42.476C76.6758 42.884 76.7518 43.336 76.7518 43.832ZM74.9278 43.832C74.9278 43.28 74.8158 42.848 74.5918 42.536C74.3758 42.216 74.0638 42.056 73.6558 42.056C73.2478 42.056 72.9318 42.216 72.7078 42.536C72.4838 42.848 72.3718 43.28 72.3718 43.832C72.3718 44.384 72.4838 44.824 72.7078 45.152C72.9318 45.472 73.2478 45.632 73.6558 45.632C74.0638 45.632 74.3758 45.472 74.5918 45.152C74.8158 44.824 74.9278 44.384 74.9278 43.832ZM79.6888 47C79.2808 46.2 78.8648 45.264 78.4408 44.192C78.0248 43.12 77.6288 41.952 77.2528 40.688H79.1488C79.2288 41 79.3208 41.34 79.4248 41.708C79.5368 42.068 79.6488 42.436 79.7608 42.812C79.8808 43.18 79.9968 43.54 80.1088 43.892C80.2288 44.244 80.3448 44.564 80.4568 44.852C80.5608 44.564 80.6728 44.244 80.7928 43.892C80.9128 43.54 81.0288 43.18 81.1408 42.812C81.2608 42.436 81.3728 42.068 81.4768 41.708C81.5888 41.34 81.6848 41 81.7648 40.688H83.6128C83.2368 41.952 82.8368 43.12 82.4128 44.192C81.9968 45.264 81.5848 46.2 81.1768 47H79.6888ZM86.8653 45.752C87.0413 45.752 87.2093 45.748 87.3693 45.74C87.5293 45.732 87.6573 45.72 87.7533 45.704V44.348C87.6813 44.332 87.5733 44.316 87.4293 44.3C87.2853 44.284 87.1533 44.276 87.0333 44.276C86.8653 44.276 86.7053 44.288 86.5533 44.312C86.4093 44.328 86.2813 44.364 86.1693 44.42C86.0573 44.476 85.9693 44.552 85.9053 44.648C85.8413 44.744 85.8093 44.864 85.8093 45.008C85.8093 45.288 85.9013 45.484 86.0853 45.596C86.2773 45.7 86.5373 45.752 86.8653 45.752ZM86.7213 40.52C87.2493 40.52 87.6893 40.58 88.0413 40.7C88.3933 40.82 88.6733 40.992 88.8813 41.216C89.0973 41.44 89.2493 41.712 89.3373 42.032C89.4253 42.352 89.4693 42.708 89.4693 43.1V46.82C89.2133 46.876 88.8573 46.94 88.4013 47.012C87.9453 47.092 87.3933 47.132 86.7453 47.132C86.3373 47.132 85.9653 47.096 85.6293 47.024C85.3013 46.952 85.0173 46.836 84.7773 46.676C84.5373 46.508 84.3533 46.292 84.2253 46.028C84.0973 45.764 84.0333 45.44 84.0333 45.056C84.0333 44.688 84.1053 44.376 84.2493 44.12C84.4013 43.864 84.6013 43.66 84.8493 43.508C85.0973 43.356 85.3813 43.248 85.7013 43.184C86.0213 43.112 86.3533 43.076 86.6973 43.076C86.9293 43.076 87.1333 43.088 87.3093 43.112C87.4933 43.128 87.6413 43.152 87.7533 43.184V43.016C87.7533 42.712 87.6613 42.468 87.4773 42.284C87.2933 42.1 86.9733 42.008 86.5173 42.008C86.2133 42.008 85.9133 42.032 85.6173 42.08C85.3213 42.12 85.0653 42.18 84.8493 42.26L84.6213 40.82C84.7253 40.788 84.8533 40.756 85.0053 40.724C85.1653 40.684 85.3373 40.652 85.5213 40.628C85.7053 40.596 85.8973 40.572 86.0973 40.556C86.3053 40.532 86.5133 40.52 86.7213 40.52ZM95.7809 45.716C96.1089 45.716 96.3409 45.684 96.4769 45.62C96.6129 45.556 96.6809 45.432 96.6809 45.248C96.6809 45.104 96.5929 44.98 96.4169 44.876C96.2409 44.764 95.9729 44.64 95.6129 44.504C95.3329 44.4 95.0769 44.292 94.8449 44.18C94.6209 44.068 94.4289 43.936 94.2689 43.784C94.1089 43.624 93.9849 43.436 93.8969 43.22C93.8089 43.004 93.7649 42.744 93.7649 42.44C93.7649 41.848 93.9849 41.38 94.4249 41.036C94.8649 40.692 95.4689 40.52 96.2369 40.52C96.6209 40.52 96.9889 40.556 97.3409 40.628C97.6929 40.692 97.9729 40.764 98.1809 40.844L97.8689 42.236C97.6609 42.164 97.4329 42.1 97.1849 42.044C96.9449 41.988 96.6729 41.96 96.3689 41.96C95.8089 41.96 95.5289 42.116 95.5289 42.428C95.5289 42.5 95.5409 42.564 95.5649 42.62C95.5889 42.676 95.6369 42.732 95.7089 42.788C95.7809 42.836 95.8769 42.892 95.9969 42.956C96.1249 43.012 96.2849 43.076 96.4769 43.148C96.8689 43.292 97.1929 43.436 97.4489 43.58C97.7049 43.716 97.9049 43.868 98.0489 44.036C98.2009 44.196 98.3049 44.376 98.3609 44.576C98.4249 44.776 98.4569 45.008 98.4569 45.272C98.4569 45.896 98.2209 46.368 97.7489 46.688C97.2849 47.008 96.6249 47.168 95.7689 47.168C95.2089 47.168 94.7409 47.12 94.3649 47.024C93.9969 46.928 93.7409 46.848 93.5969 46.784L93.8969 45.332C94.2009 45.452 94.5129 45.548 94.8329 45.62C95.1529 45.684 95.4689 45.716 95.7809 45.716ZM99.4931 43.844C99.4931 43.388 99.5651 42.96 99.7091 42.56C99.8611 42.152 100.077 41.8 100.357 41.504C100.637 41.2 100.977 40.96 101.377 40.784C101.777 40.608 102.233 40.52 102.745 40.52C103.081 40.52 103.389 40.552 103.669 40.616C103.949 40.672 104.221 40.756 104.485 40.868L104.113 42.296C103.945 42.232 103.761 42.176 103.561 42.128C103.361 42.08 103.137 42.056 102.889 42.056C102.361 42.056 101.965 42.22 101.701 42.548C101.445 42.876 101.317 43.308 101.317 43.844C101.317 44.412 101.437 44.852 101.677 45.164C101.925 45.476 102.353 45.632 102.961 45.632C103.177 45.632 103.409 45.612 103.657 45.572C103.905 45.532 104.133 45.468 104.341 45.38L104.593 46.844C104.385 46.932 104.125 47.008 103.813 47.072C103.501 47.136 103.157 47.168 102.781 47.168C102.205 47.168 101.709 47.084 101.293 46.916C100.877 46.74 100.533 46.504 100.261 46.208C99.9971 45.912 99.8011 45.564 99.6731 45.164C99.5531 44.756 99.4931 44.316 99.4931 43.844ZM105.793 47V37.976L107.581 37.688V40.712C107.701 40.672 107.853 40.636 108.037 40.604C108.229 40.564 108.413 40.544 108.589 40.544C109.101 40.544 109.525 40.616 109.861 40.76C110.205 40.896 110.477 41.092 110.677 41.348C110.885 41.604 111.029 41.908 111.109 42.26C111.197 42.612 111.241 43.004 111.241 43.436V47H109.453V43.652C109.453 43.076 109.377 42.668 109.225 42.428C109.081 42.188 108.809 42.068 108.409 42.068C108.249 42.068 108.097 42.084 107.953 42.116C107.817 42.14 107.693 42.168 107.581 42.2V47H105.793ZM118.764 43.832C118.764 44.328 118.692 44.784 118.548 45.2C118.404 45.608 118.196 45.96 117.924 46.256C117.652 46.544 117.324 46.768 116.94 46.928C116.564 47.088 116.14 47.168 115.668 47.168C115.204 47.168 114.78 47.088 114.396 46.928C114.02 46.768 113.696 46.544 113.424 46.256C113.152 45.96 112.94 45.608 112.788 45.2C112.636 44.784 112.56 44.328 112.56 43.832C112.56 43.336 112.636 42.884 112.788 42.476C112.948 42.068 113.164 41.72 113.436 41.432C113.716 41.144 114.044 40.92 114.42 40.76C114.804 40.6 115.22 40.52 115.668 40.52C116.124 40.52 116.54 40.6 116.916 40.76C117.3 40.92 117.628 41.144 117.9 41.432C118.172 41.72 118.384 42.068 118.536 42.476C118.688 42.884 118.764 43.336 118.764 43.832ZM116.94 43.832C116.94 43.28 116.828 42.848 116.604 42.536C116.388 42.216 116.076 42.056 115.668 42.056C115.26 42.056 114.944 42.216 114.72 42.536C114.496 42.848 114.384 43.28 114.384 43.832C114.384 44.384 114.496 44.824 114.72 45.152C114.944 45.472 115.26 45.632 115.668 45.632C116.076 45.632 116.388 45.472 116.604 45.152C116.828 44.824 116.94 44.384 116.94 43.832ZM126.053 43.832C126.053 44.328 125.981 44.784 125.837 45.2C125.693 45.608 125.485 45.96 125.213 46.256C124.941 46.544 124.613 46.768 124.229 46.928C123.853 47.088 123.429 47.168 122.957 47.168C122.493 47.168 122.069 47.088 121.685 46.928C121.309 46.768 120.985 46.544 120.713 46.256C120.441 45.96 120.229 45.608 120.077 45.2C119.925 44.784 119.849 44.328 119.849 43.832C119.849 43.336 119.925 42.884 120.077 42.476C120.237 42.068 120.453 41.72 120.725 41.432C121.005 41.144 121.333 40.92 121.709 40.76C122.093 40.6 122.509 40.52 122.957 40.52C123.413 40.52 123.829 40.6 124.205 40.76C124.589 40.92 124.917 41.144 125.189 41.432C125.461 41.72 125.673 42.068 125.825 42.476C125.977 42.884 126.053 43.336 126.053 43.832ZM124.229 43.832C124.229 43.28 124.117 42.848 123.893 42.536C123.677 42.216 123.365 42.056 122.957 42.056C122.549 42.056 122.233 42.216 122.009 42.536C121.785 42.848 121.673 43.28 121.673 43.832C121.673 44.384 121.785 44.824 122.009 45.152C122.233 45.472 122.549 45.632 122.957 45.632C123.365 45.632 123.677 45.472 123.893 45.152C124.117 44.824 124.229 44.384 124.229 43.832ZM129.958 47.12C129.438 47.112 129.014 47.056 128.686 46.952C128.366 46.848 128.11 46.704 127.918 46.52C127.734 46.328 127.606 46.1 127.534 45.836C127.47 45.564 127.438 45.26 127.438 44.924V37.976L129.226 37.688V44.564C129.226 44.724 129.238 44.868 129.262 44.996C129.286 45.124 129.33 45.232 129.394 45.32C129.466 45.408 129.566 45.48 129.694 45.536C129.822 45.592 129.994 45.628 130.21 45.644L129.958 47.12Z" fill="url(#paint1_linear)"/>
<defs>
<linearGradient id="paint0_linear" x1="85.5" y1="0" x2="85.5" y2="64" gradientUnits="userSpaceOnUse">
<stop stop-color="#DB4C4C"/>
<stop offset="1" stop-color="#DB4C4C" stop-opacity="0"/>
</linearGradient>
<linearGradient id="paint1_linear" x1="86" y1="8" x2="86" y2="52" gradientUnits="userSpaceOnUse">
<stop offset="0.3125" stop-color="white"/>
<stop offset="1" stop-color="white" stop-opacity="0"/>
</linearGradient>
</defs>
</svg>
