<svg width="13" height="16" viewBox="0 0 13 16" fill="none" xmlns="http://www.w3.org/2000/svg">
<path d="M9.19774 15.1171C8.78463 15.1171 8.37501 15.0315 7.97447 14.861C6.2099 14.1096 4.572 12.886 3.23778 11.3222C1.90356 9.75842 0.859532 7.83865 0.218543 5.77043C0.0125614 5.10577 -0.0482257 4.41966 0.037931 3.7311C0.118639 3.08613 0.331794 2.45999 0.654375 1.92036C0.978382 1.37836 1.41034 0.927562 1.90354 0.616706C2.42947 0.285225 3.00353 0.117126 3.6098 0.117126C3.79836 0.117126 3.96132 0.271544 4.00084 0.487629L4.62856 3.92105C4.65698 4.07652 4.61621 4.2383 4.52031 4.35073L3.44771 5.60787C4.45954 7.96576 6.1014 9.89013 8.11312 11.0761L9.18569 9.81892C9.28162 9.70651 9.41967 9.65879 9.55229 9.69204L12.4816 10.4278C12.666 10.4741 12.7978 10.6651 12.7978 10.8861C12.7978 11.5967 12.6543 12.2696 12.3715 12.886C12.1063 13.4641 11.7217 13.9703 11.2592 14.3501C10.7989 14.7282 10.2646 14.978 9.71433 15.0726C9.54189 15.1023 9.36948 15.1171 9.19774 15.1171V15.1171ZM3.29027 1.0751C2.49056 1.17857 1.78076 1.66986 1.30941 2.45835C0.779374 3.34498 0.655775 4.43551 0.970308 5.45037C2.20265 9.42656 4.85511 12.5354 8.24754 13.9798C9.11338 14.3485 10.0438 14.2037 10.8003 13.5824C11.473 13.0299 11.8922 12.198 11.9805 11.2607L9.59746 10.6622L8.47729 11.9751C8.35809 12.1148 8.17698 12.1519 8.02446 12.0679C5.64522 10.7578 3.71933 8.50049 2.60156 5.71184C2.5299 5.53305 2.56155 5.32077 2.68075 5.18109L3.80091 3.86817L3.29027 1.0751Z" fill="white"/>
</svg>
