<svg width="55" height="43" viewBox="0 0 55 43" fill="none" xmlns="http://www.w3.org/2000/svg">
<path opacity="0.4" d="M43.7812 42.3594C41.3073 42.3594 39.0938 41.6107 37.1406 40.1133C35.1875 38.6159 34.0156 37.0534 33.625 35.4258C33.2995 33.7982 33.1367 32.2357 33.1367 30.7383C33.1367 29.0456 33.3646 26.9622 33.8203 24.4883C34.3411 22.0143 34.9596 19.8008 35.6758 17.8477C36.3268 16.0898 37.1732 14.2018 38.2148 12.1836C39.2565 10.1654 40.2005 8.50521 41.0469 7.20312C41.112 7.13802 41.9258 5.86849 43.4883 3.39453L45.1484 1.05078L50.6172 4.07812C45.9297 10.7839 43.5859 16.5781 43.5859 21.4609C45.3438 21.4609 47.0365 21.8841 48.6641 22.7305C50.2917 23.5768 51.5938 24.7812 52.5703 26.3438C53.612 27.8411 54.1328 29.599 54.1328 31.6172C54.1328 34.612 53.0911 37.151 51.0078 39.2344C48.9896 41.3177 46.5807 42.3594 43.7812 42.3594ZM11.5547 42.1641C9.08073 42.1641 6.86719 41.4154 4.91406 39.918C2.96094 38.4206 1.78906 36.8581 1.39844 35.2305C1.07292 33.6029 0.910156 32.0404 0.910156 30.543C0.910156 28.8503 1.13802 26.7669 1.59375 24.293C2.11458 21.819 2.73307 19.6055 3.44922 17.6523C4.10026 15.8945 4.94661 14.0065 5.98828 11.9883C7.02995 9.97005 7.97396 8.3099 8.82031 7.00781C8.88542 6.94271 9.69922 5.67318 11.2617 3.19922L12.9219 0.855469L18.3906 3.88281C13.7031 10.5885 11.3594 16.3828 11.3594 21.2656C13.1172 21.2656 14.8099 21.6888 16.4375 22.5352C18.0651 23.3815 19.3672 24.5859 20.3438 26.1484C21.3854 27.6458 21.9062 29.4036 21.9062 31.4219C21.9062 34.4167 20.8646 36.9557 18.7812 39.0391C16.763 41.1224 14.3542 42.1641 11.5547 42.1641Z" fill="#DB4C4C"/>
</svg>
