<svg width="54" height="42" viewBox="0 0 54 42" fill="none" xmlns="http://www.w3.org/2000/svg">
<path opacity="0.4" d="M42.8555 0.636719C45.3294 0.636719 47.543 1.38542 49.4961 2.88281C51.4492 4.38021 52.6211 5.94271 53.0117 7.57031C53.3372 9.19792 53.5 10.7604 53.5 12.2578C53.5 13.9505 53.2396 16.0339 52.7188 18.5078C52.263 20.9818 51.6771 23.1953 50.9609 25.1484C50.3099 26.9062 49.4635 28.7943 48.4219 30.8125C47.3802 32.8307 46.4362 34.4909 45.5898 35.793C45.5247 35.8581 44.7109 37.1276 43.1484 39.6016L41.4883 41.9453L36.0195 38.918C40.707 32.1471 43.0508 26.3529 43.0508 21.5352C41.293 21.5352 39.6003 21.112 37.9727 20.2656C36.3451 19.4193 35.0104 18.2474 33.9688 16.75C32.9922 15.1875 32.5039 13.3971 32.5039 11.3789C32.5039 8.38411 33.513 5.84505 35.5312 3.76172C37.6146 1.67839 40.056 0.636719 42.8555 0.636719ZM10.8242 0.441406C13.2982 0.441406 15.5117 1.1901 17.4648 2.6875C19.418 4.1849 20.5898 5.7474 20.9805 7.375C21.306 9.0026 21.4688 10.5651 21.4688 12.0625C21.4688 13.7552 21.2083 15.8385 20.6875 18.3125C20.2318 20.7865 19.6458 23 18.9297 24.9531C18.2786 26.7109 17.4323 28.599 16.3906 30.6172C15.349 32.6354 14.4049 34.2956 13.5586 35.5977C13.4935 35.6628 12.6797 36.9323 11.1172 39.4062L9.45703 41.75L3.98828 38.7227C8.67578 31.9518 11.0195 26.1576 11.0195 21.3398C9.26172 21.3398 7.56901 20.9167 5.94141 20.0703C4.3138 19.224 2.97917 18.0521 1.9375 16.5547C0.960938 14.9922 0.472656 13.2018 0.472656 11.1836C0.472656 8.1888 1.48177 5.64974 3.5 3.56641C5.58333 1.48307 8.02474 0.441406 10.8242 0.441406Z" fill="#DB4C4C"/>
</svg>
